<?xml version="1.0" encoding="UTF-8"?>
<svg version="1.1" viewBox="0 0 960 1064" width="1280" height="1280" xmlns="http://www.w3.org/2000/svg">
<path transform="translate(465,16)" d="m0 0h31l8 3 9 3 11 5 19 10 20 12 27 15 17 10 28 16 27 15 29 17 22 13 12 7 11 6 27 15 26 15 16 9 13 8 25 14 21 12 25 14 11 7 14 10 8 7v2h2l8 11 7 13 2 13 2 3 1 6v447l-1 13-2 3-2 9-9 17-11 13-10 9-14 9-27 15-24 14-25 14-27 16-27 15-24 14-25 14-25 15-25 14-24 14-25 14-46 27-28 16-18 10-16 8-13 3-2 1-12 1-15-2-12-2-16-7-20-11-20-12-26-15-21-12-26-15-23-13-26-15-24-14-23-13-21-12-18-10-34-20-26-15-23-13-21-12-24-14-14-10-15-15-10-21-4-12v-464l3-8 2-10 8-16 12-13 13-11 26-15 35-20 15-9 29-17 17-9 49-28 17-10 21-12 26-15 21-12 27-15 17-10 16-9 19-11 13-8 35-20 12-5 9-2z" fill="#370091"/>
<path transform="translate(472,191)" d="m0 0h24l26 2 33 5 25 6 29 10 19 8 19 10 21 12 16 11 12 9 11 9 12 11 21 21 9 11 11 14 11 16 8 12-1 5-24 14-26 15-28 16-26 15-21 12-18 10-6 1-4-8-13-16-4-4v-2h-2l-14-14-14-10-17-10-16-7-21-7-24-4h-33l-18 3-19 5-15 6-16 8-14 9-14 11-16 16-10 13-11 18-8 17-7 21-3 12-2 14v32l3 20 7 23 8 19 2 3v3h2l9 15 11 13 9 10 11 10 17 12 23 12 16 6 21 5 14 2 22 1 26-3 23-6 15-6 16-8 14-9 14-11 17-17 14-19 3-5 5 1 25 14 24 14 49 28 41 24 5 4-1 5-13 20-8 11-13 16-12 14-14 14-8 7-11 9-13 10-16 11-20 12-23 12-24 10-27 9-30 7-28 4-13 1h-44l-21-2-28-5-28-7-26-9-21-9-20-10-20-12-20-14-16-13-10-9-15-14-13-14-9-11-15-20-12-19-2-5-8-14-12-25-8-21-7-25-6-28-4-33-1-19v-12l2-28 4-27 6-27 8-26 9-22 12-25 10-17 15-22 14-18 15-16 9-10 8-7 13-12 16-12 24-16 25-14 19-9 27-10 28-8 25-5 23-3z" fill="#FDFDFC"/>
<path transform="translate(465,16)" d="m0 0h31l8 3 9 3 11 5 19 10 20 12 27 15 17 10 28 16 27 15 29 17 22 13 12 7 11 6 27 15 26 15 16 9 13 8 25 14 21 12 25 14 11 7 14 10 8 7v2h2l8 11 7 13 1 4v9h-1l-3-12-5-10-6 2-24 14-21 12-24 14-27 15-24 14-22 13-5 2-1-5-13-20-12-16-9-11-12-13-20-20-11-9-13-10-24-16-25-14-17-8-23-9-22-7-26-6-28-4-26-2h-24l-20 1-29 4-26 6-24 7-26 10-23 11-24 14-19 13-13 10-14 12-8 8-7 6-7 8-13 14-12 16-11 16-8 13-10 18-10 21-9 24-7 24-6 28-4 31-1 19v12l2 30 4 28 8 34 8 24 10 23 10 20 5 7-1 2-4-1-22 12-22 13-49 28-17 10-26 15-14 8 2 5 2 6-4-4-9-19-4-12v-464l3-8 2-10 8-16 12-13 13-11 26-15 35-20 15-9 29-17 17-9 49-28 17-10 21-12 26-15 21-12 27-15 17-10 16-9 19-11 13-8 35-20 12-5 9-2z" fill="#9F7ADB"/>
<path transform="translate(183,704)" d="m0 0 4 1 14 22 16 21 12 14 14 15 13 12 14 12 19 14 19 12 18 10 25 12 34 12 32 8 32 5 13 1h44l21-2 25-4 28-7 27-9 27-12 21-11 24-15 13-10 10-8 11-9 15-14 8-8 9-11 14-17 12-18 7-11 4-4 3 1v2l4 2 28 16 26 15 17 10 26 15 23 13 15 8 7 3-1 6-11 13-10 9-14 9-27 15-24 14-25 14-27 16-27 15-24 14-25 14-25 15-25 14-24 14-25 14-46 27-28 16-18 10-16 8-13 3-2 1-12 1-15-2-12-2-16-7-20-11-20-12-26-15-21-12-26-15-23-13-26-15-24-14-23-13-21-12-18-10-34-20-26-15-23-13-21-12-24-14-14-10-12-12-5-10 2-4 22-12 24-14 21-12 71-41z" fill="#270169"/>
<path transform="translate(467,363)" d="m0 0h33l24 4 24 8 17 8 16 10 13 10 8 8 4 3v2h2l7 8 11 14 3 6v2l3 1-12 6-17 10-28 16-19 11-52 30-24 14-56 32-78 45-12 6-8-17-9-27-3-16-1-8v-32l3-18 6-21 6-15 10-19 12-17 12-13 11-11 16-12 19-11 19-8 17-5 16-3z" fill="#9F7ADB"/>
<path transform="translate(482,532)" d="m0 0h2l5 5 12 6 24 14 15 9 24 14 26 15 39 22 3 2-11 16-9 11-17 17-16 12-21 12-20 8-23 6-26 3-22-1-19-3-22-6-18-8-15-8-14-10-14-12-8-8-9-11-9-13-4-8 15-8 24-14 52-30 28-16 26-15z" fill="#270069"/>
<path transform="translate(725,435)" d="m0 0h23l1 1v47h48v-47l1-1h23l1 1v47h46l3 3v21l-1 1h-48v47l48 1 1 2v21l-1 1h-48v48l-3 1h-20l-2-1v-48l-47 1-1 47-1 1h-23l-1-1-1-48h-47l-1-2v-22l48-1v-46l-47-1-1-1v-23l1-1h48v-47z" fill="#F6F3FA"/>
<path transform="translate(750,508)" d="m0 0h47v47l-1 1h-46l-1-1v-46z" fill="#370091"/>
<path transform="translate(940,298)" d="m0 0 3 3 1 6v447l-1 13-3 3 1-14v-430z" fill="#9F7ADB"/>
<path transform="translate(753,745)" d="m0 0 2 4-7 7-3 5-3 3v3l-4-1 1 3-3 5h-2v2h-2v2h-2v2l-4 1v2l-7 6-3 4h-2l-2 4-8 6-5 2-3 2v-2l-2 1-1 3-5 5-6 2-1-3 11-8 10-8 11-9 15-14 8-8 9-11z" fill="#360090"/>
<path transform="translate(430,688)" d="m0 0 7 1 5 1v2l5 1 14 2 4 3 9 2-4 1v2l-17-2v-1h5v-3l-4 1h-9l-5-2-9-2-1-3h-2v-2z" fill="#36008F"/>
<path transform="translate(409,681)" d="m0 0 10 4 8 2 1 4h2l1 2 13 3 1 1h13v3h-10l-22-6-16-7-2-4z" fill="#29006E"/>
<path transform="translate(463,1048)" d="m0 0 19 1h14l-2 2-12 1-15-2z" fill="#6637B2"/>
<path transform="translate(409,681)" d="m0 0 10 4 8 2-1 3-7-1-2-2-6-1-3-3z" fill="#36008F"/>
<path transform="translate(932,274)" d="m0 0 3 3 4 8 1 4v9h-1l-3-12-4-9z" fill="#BEA6E6"/>
<path transform="translate(119,856)" d="m0 0 6 1 6 3v3l-5-2-7-4z" fill="#6334B0"/>
<path transform="translate(409,681)" d="m0 0 8 3v3l-6-1-3-3z" fill="#370091"/>
<path transform="translate(154,876)" d="m0 0 7 2 5 2v3l-5-2-7-4z" fill="#6A3DB4"/>
<path transform="translate(942,756)" d="m0 0h1v11l-3 3 1-13z" fill="#AD8EE0"/>
</svg>
