<?xml version="1.0" encoding="UTF-8"?>
<svg version="1.1" viewBox="0 0 880 944" width="1280" height="1280" xmlns="http://www.w3.org/2000/svg">
<path transform="translate(239,39)" d="m0 0h383l38 1 34 4 23 5 19 8 19 10 16 11 13 11 15 15 11 15 11 19 9 19 5 15 2 14 2 3 1 9 1 26 1 4 2 42v211l-1 169-1 22-3 35-4 16-5 15-7 16-12 20-11 16-12 14-8 8-15 11-16 9-23 11-19 6-17 4-20 3-24 1h-409l-43-1-9-2-15-2-20-5-23-10-19-11-14-10-12-11-13-13-10-13-9-15-8-16-6-14-5-19-3-14-1-27-3-27v-397l3-15 1-41 3-10 3-14 6-18 8-16 16-25 12-14 13-13 18-13 15-9 19-9 15-5 17-4 25-2 7-2z" fill="#FEFEFE"/>
<path transform="translate(339,317)" d="m0 0h16l21 3 18 6 16 9 13 11 10 12 9 15 8 20 5 21 2 17v37l-4 24-6 20-8 16-7 11-11 13-14 11-16 8-11 4-17 3h-28l-17-3-16-6-11-6-9-7-7-6v-2h-2l-10-13-8-14-7-16-5-19-3-20v-33l4-27 6-21 8-16 7-11 11-13 10-9 15-9 15-6 14-3z" fill="#FEFEFE"/>
<path transform="translate(333,290)" d="m0 0h33l25 5 20 7 18 10 11 9 12 12 10 14 9 16 5 11 5 15 4 16 3 21 1 17v12l-2 25-5 24-6 18-9 19-10 15-8 10-10 10-17 12-17 8-15 5-20 4-9 1h-28l-22-4-16-5-18-8-10-7-10-8-12-12-12-17-10-21-6-18-5-24-2-16v-35l3-25 5-21 7-19 9-17 8-11 9-10 5-5 9-8 14-9 15-7 20-6zm6 27-19 3-17 6-14 8-13 11-9 10-10 15-7 15-6 21-4 27v33l4 24 5 18 10 21 10 14 4 5h2l2 4 11 9 14 8 16 6 17 3h28l20-4 17-7 11-7 13-11 13-17 8-16 6-16 4-18 2-14v-37l-2-17-5-21-8-20-9-15-11-13-12-10-18-10-16-5-21-3z" fill="#FF9B33"/>
<path transform="translate(604,290)" d="m0 0h32l17 3 18 6 14 7 10 7 10 9 10 14 6 13 3 10v9l-4 7-5 3h-11l-5-3-4-10-5-12-7-11-8-8-13-8-17-6-13-2h-26l-15 3-13 5-12 7-9 9-5 9-4 10-1 14 3 15 7 12 10 9 15 8 19 6 29 7 7 2 27 7 20 7 17 9 10 8 7 8 6 10 5 13 2 9v21l-4 19-8 17-8 10-3 4h-2v2l-10 8-19 10-16 5-14 3-8 1h-35l-17-3-21-6-16-8-11-7-14-14-9-14-5-14-1-4v-12l3-6 5-4 5-1 9 2 4 4 7 19 6 11v2h2l7 8 12 9 13 6 15 4 18 2h10l19-2 17-5 14-7 10-8 8-10 5-12 2-10v-10l-2-10-6-12-8-9-13-8-11-5-20-6-46-10-26-8-16-8-13-9-11-11-8-14-5-16-1-20 3-17 5-12 6-10 11-13 12-9 14-8 21-7z" fill="#E14460"/>
<path transform="translate(400,301)" d="m0 0h5v2l6-1 18 10 11 9 12 12 10 14 9 16 5 11 5 15 4 16 3 21 1 17v12l-2 25-5 24-6 18-9 19-10 15-8 10-10 10-17 12-17 8-15 5-20 4-9 1h-28l-13-2-1-3-7-3 4-1v-2l-3-1v-3-10l5-2 1-3 4-1 12 2h28l20-4 17-7 11-7 13-11 12-16 8-16 6-16 4-18 2-14v-37l-2-17-5-21-8-20-9-15-11-13-11-9-16-9-1-10 3-1-3-7 1-5 6-1z" fill="#E14460"/>
<path transform="translate(664,442)" d="m0 0 9 2 15 6 13 7 10 8 7 8 6 10 5 13 2 9v21l-4 19-8 17-8 10-3 4h-2v2l-10 8-19 10-16 5-14 3-8 1h-35l-17-3-21-6-16-8-11-7-14-14-9-14-5-14-1-4v-12l3-6 5-4 5-1 9 2 4 4 7 19 6 11v2h2l7 8 12 9 13 6 15 4 18 2h10l19-2 17-5 14-7 10-8 8-10 5-12 2-10v-10l-2-10-6-12-8-9-13-8-7-4-5-5-6-7 2-5z" fill="#5561A5"/>
<path transform="translate(239,39)" d="m0 0h383l38 1 34 4 23 5 19 8 19 10 16 11 13 11 15 15 11 15 11 19 9 19 5 15 2 14 2 3 1 9 1 26 1 4 2 42v211l-1 169-1 22-3 35-4 16-5 15-7 16-12 20-11 16-12 14-8 8-15 11-16 9-23 11-19 6-17 4-20 3-24 1h-409l-43-1-9-2-15-2-20-5-23-10-19-11-14-10-12-11-13-13-10-13-9-15-8-16-6-14-5-19-3-14-1-27-3-27v-397l3-15 1-41 3-10 3-14 6-18 8-16 16-25 12-14 13-13 18-13 15-9 19-9 15-5 17-4 25-2 7-2zm12 2-52 2-29 4-19 5-16 6-16 8-16 10-16 13-15 15-11 15-11 18-7 15-7 21-4 20-3 30-1 16-1 46 1 371 3 39 4 23 6 21 9 20 9 15 9 12 12 14 13 12 15 11 17 10 18 8 20 6 14 3 27 3 49 2h361l31-1 27-2 27-4 19-5 20-8 17-9 13-9 11-9 17-17 10-13 11-18 8-17 6-18 5-25 2-16 2-37v-394l-2-40-4-29-5-20-6-16-8-16-10-16-9-11-9-10-8-8-13-10-15-10-25-12-20-6-20-4-19-2-40-2z" fill="#6C6D7B"/>
<path transform="translate(156,376)" d="m0 0h6l6 4 4 4 1 4v205l-2 5-7 6-2 1-9-1-7-6-1-4v-209l5-6z" fill="#FC8834"/>
<path transform="translate(400,301)" d="m0 0h5v2l6-1 18 10 11 9 12 12 10 14 9 16 5 11 5 15 3 30 1 9v27l-4 1-2 4-5-1-1 2 2 1-3 7h-2v6l-1 5h-2l-1 6-2 3-1 3-2 1-2 6-1-2-3 1 1-13 2-14v-37l-1-13-2-1-5-23-5-15-8-16-9-13-9-10-12-9-13-7-1-10 3-1-3-7 1-5 6-1z" fill="#E13F51"/>
<path transform="translate(522,512)" d="m0 0 10 2 4 4 7 19 6 11v2h2l7 8 12 9 13 6 15 4 28 3v1l-8 1-2 2-1 4h2l-1 6-1 2h-2v2l-4 3h-2v2l9 1v1h-12l-17-3-21-6-16-8-11-7-14-14-9-14-5-14-1-4v-12l3-6 5-4z" fill="#BD5CAA"/>
<path transform="translate(546,383)" d="m0 0h2l4 11 7 10 8 7 15 8 19 6 29 7 7 2 27 7-1 4-6 10-2 5 7 8 3 2v2l-4-1-20-6-46-10-26-8-16-8-6-4v-3h-2l-1-4-3-1-1-5 5-6 4-2 2-5v-9l-3-5-2-6z" fill="#BE5BAA"/>
<path transform="translate(641,291)" d="m0 0 16 3 16 6 12 6 10 7 10 9 10 14 6 13 3 10v9l-4 7-5 3h-11l-5-3-4-10-5-12-7-11-8-8-13-8-17-6-13-2-21-1 2-2h11l3-1 2-4 4-1 1-3 4-4-2-1h2v-2h2l2-5-3-2z" fill="#BE5BA9"/>
<path transform="translate(246,507)" d="m0 0 4 1 10 21 10 14 3 3v2h2l5 5 8 7 14 8 19 7-5 5-3 1 1 10v3l2 1v2l-2 1 6 3v2l-9-1-16-5-18-8-10-7-10-8-12-12-9-13 1-3 5-3-1-3 1-8 5 1 1-4-2-10 1-7z" fill="#F85747"/>
<path transform="translate(664,442)" d="m0 0 9 2 15 6 13 7 10 8 7 8 6 10 5 13 2 9v8h-3v-2h-2v-2l-3 1-4 7h-2l1 4-5-1-5-4-2 4h-2l-2 4-2-16-5-12-7-9-9-7-14-8-5-5-6-7 2-5z" fill="#6261AC"/>
<path transform="translate(234,432)" d="m0 0 4 1 1 17 1 13 3 17 6 27-2 1 1 4-1 10 2 10-2 2-4-1-2 9 2 1-3 3-5 2-10-19-6-16-5-20-2-21-1-8 1-27 1-3 4 2 3 9 3 3 5-3 4-10z" fill="#FC8834"/>
<path transform="translate(400,301)" d="m0 0h5v2l6-1 18 10 11 9 12 12 8 11 1 8 2 11-1 4h-5l-3 6-1 1v6l1 2h-2v4h-2l2 9 4 16v9h-1l-5-23-5-15-8-16-9-13-9-10-12-9-13-7-1-10 3-1-3-7 1-5 6-1z" fill="#F85746"/>
<path transform="translate(156,376)" d="m0 0h6l6 4 4 4 1 4v162h-1l-1-90 1-4h-3l-1-2-3 3-1 6h-2l-4 4-5-4-2-5h-4l-1 136h-1v-209l5-6z" fill="#FF9B33"/>
<path transform="translate(351,291)" d="m0 0h22l21 5 14 5-1 2-6-1-7 2v5l2 3v4l-2 1 1 7-1 2-11-3-18-4-10-1h-16l-19 3-8 1-1-3 1-4 4-2 2-5-1-3h-6v-2l-3-1 5-6 16-4z" fill="#FC8934"/>
<path transform="translate(321,575)" d="m0 0 14 2-1 3 3 1 1 4 2-1 1 3 2 1v-2l5 2h6l3 2v2l6-1v-2l6 2 10-5 2 2 1-2 8-3 3 2 1-2h6l2 4 2 1 4-1 2 5-2 3-18 6-20 4-9 1h-28l-13-2-1-3-7-3 4-1v-2l-3-1v-3-10l5-2 1-3z" fill="#F0474D"/>
<path transform="translate(146,522)" d="m0 0 2 4v5l5 2 2 7 1 3 4 1v-2h2l1 9-1 4 1 1 1 11 1 6h3l1 2 1-6 1-40h1l1 21v43l-2 5-7 6-2 1-9-1-7-6z" fill="#FC7239"/>
<path transform="translate(568,566)" d="m0 0 15 7 15 4 28 3v1l-8 1-2 2-1 4h2l-1 6-1 2h-2v2l-4 3h-2v2l9 1v1h-12l-17-3-15-4v-2l-6-2-6-7-2-4v-5l4-5h2l1-3 2-1z" fill="#9261B1"/>
<path transform="translate(569,302)" d="m0 0 1 2h5l1 6-2 3-3 2v2l-7 1 1 2 3 2-2 2-3 1-1 2h2l-2 4-1-2-2 1h2v2h-2l-1 3v-3h-2l1 5-1-2-5 1-1 4-5 1-1 3-4 4-2 5-3 3h-2l-2 7h-3l-2 7h-3l-2-4 1-2h-3v-9l-1-3 5-12 6-10 11-13 10-8 6-1z" fill="#E14051"/>
<path transform="translate(664,442)" d="m0 0 9 2 15 6 13 7 10 8 2 3-4 1-4 4-10 4-7 1-3 1-2 4-11-7-7-4-5-5-6-7 2-5z" fill="#9261B1"/>
<path transform="translate(246,507)" d="m0 0 4 1 7 15v2h-3l4 8 1 3 2 1 1 8 4 1v3l4 1 2 5v3h3l-1 5-5-2-4-1-2-3h-4l4 4 1 4 5 3v2h2v2l7 2 1 4 4 5v3l2 1-2 2 2 1v2l-6-2-11-7-11-9-12-12-9-13 1-3 5-3-1-3 1-8 5 1 1-4-2-10 1-7z" fill="#FC6641"/>
<path transform="translate(659,573)" d="m0 0 3 1-1 2 2 3 6 2-2 6v4l-4 3h-3l-2 5 3 2-14 3-8 1h-23l-9-2v-2l4-3h2v-2h2l2-8h-2l1-5 2-2h8v-2l19-2z" fill="#6361AC"/>
<path transform="translate(400,301)" d="m0 0h5v2l6-1 18 10 11 9 4 5-4-1 2 8-1 2-4-2-8-5-4-1-6-3 1 5 3 3 1 5h3l2 4 3 3 2 4-4 4-1 2-10-11-12-9-13-7-1-10 3-1-3-7 1-5 6-1z" fill="#FB6641"/>
<path transform="translate(333,290)" d="m0 0h33l-3 2h-12l-22 1-16 4-4 5 2 1v2l4-1 4 4-3 6-4 1 1 8-16 7-9 5-1-2-4 2-2 2-3-1v-4l2-6-4-5-1-7 2-1 2 1 1-4h4l1-3 3-2h3v-2l-7 3-3-1 16-7 17-5z" fill="#FE9333"/>
<path transform="translate(157,298)" d="m0 0 10 2 7 6 4 8v8l-5 8-9 6h-9l-8-4-5-6-2-5v-9l4-7 6-5z" fill="#FE9B33"/>
<path transform="translate(218,403)" d="m0 0 3 1 3 3v2l7 1 1-5 2-2 2 2v7l2-2 3-6 2 1v12l-2 16-1 30h-1l-1-21-1-9-3-1-2 6-4 8-5 3-5-5-3-9-2-1-1 31 2 14v9h-1l-3-22v-35l1-11 2 2 3-15z" fill="#FF9433"/>
<path transform="translate(145,385)" d="m0 0h1l1 50 7 3v-5l2 1v2h4l1 5h1l2-12 2-6h4l1 3 1-38h1v162h-1l-1-90 1-4h-3l-1-2-3 3-1 6h-2l-4 4-5-4-2-5h-4l-1 136h-1z" fill="#FF9434"/>
<path transform="translate(420,555)" d="m0 0 4 2-1 1 2 2-3 1 1 5h-4l-1 5h-3l-1 3-9 3v3l3 1-3 6h-3l-2-3h-3l-6 1-2-1-4 2h-3l-1 3-3-2-5 3-5 2-3-1v-2h-2v2l-6 1v-2l-9-1-5-3v2l-5-2-1-4-2-1-1-3 29-1 25-5 1 1 7-3 15-7 3-3h2v-3z" fill="#E14152"/>
<path transform="translate(377,293)" d="m0 0 10 1 21 7-1 2-6-1-7 2v5l2 3v4l-2 1 1 7-1 2-11-3-18-4-3-4 3-9-5-9v-2z" fill="#FD7339"/>
<path transform="translate(238,502)" d="m0 0 4 4v5l1-3h4l1 4-1 10 2 10-2 2-4-1-2 9 2 1-3 3-5 2-10-19-6-16-1-8h3l5 1v-1l10-1z" fill="#FD7339"/>
<path transform="translate(459,346)" d="m0 0 3 1 9 16 4 9-1 4h-2l-2 4-6 1-2-5h-2l1 6v8l2 8v11l1 1v9h-2l1 8v9h-2l-1 5h-1l-2-20-5-22-3-10 1-4 2 1 1-5-1-2v-6l2-1 2-6h5v-3h2l-4-14z" fill="#F0454D"/>
<path transform="translate(239,463)" d="m0 0 2 3 4 24 4 17h-3l-1 2-2-1 1 3h-2l-2-6-2-2-2 2-9 1-2 1-6-2-2 1-3-13v-9l2 1 1 4 2-1v-9l11 1 6 6 1-8 1-1z" fill="#FC7D36"/>
<path transform="translate(351,291)" d="m0 0h22l5 1-1 2-17 1 6 11-3 10 1 2-33-1v-1l7-1 5-8v-5l-5-2-2-2 1-5 3-1z" fill="#FC7D35"/>
<path transform="translate(171,467)" d="m0 0h1v62l-1 40-1 8-2-4h-3l-2-6-1-11-1-2 1-5-1-4 1-3h-2v2l-5-1-1-5v-6l5 1 2 5 2-5v-5l2-6 3-5 2-2z" fill="#FC7B36"/>
<path transform="translate(171,529)" d="m0 0h1l1 21v43l-2 5-7 6-2 1-9-1-4-3v-2h2v-2l4-2h7l2-9h2l2-2 1 1 1-16z" fill="#F76749"/>
<path transform="translate(456,417)" d="m0 0 2 4 1 13v37l-2 14-3 1 2-18z" fill="#E25861"/>
<path transform="translate(146,522)" d="m0 0 2 4v5l5 2v6l-2 5-3 1-1 10h-1z" fill="#FC7C36"/>
<path transform="translate(422,550)" d="m0 0m-1 1m-1 1m-2 1 2 1-3 3-1 3-4 1-1 3-10 5-5 2-9 3 4-4 16-8 10-8z" fill="#DE4966"/>
<path transform="translate(458,463)" d="m0 0h1l-1 17-1 5-3 1 2-18z" fill="#E34F5F"/>
<path transform="translate(403,564)" d="m0 0 2 1-4 4-5 2-9 3 4-4z" fill="#E14D62"/>
<path transform="translate(402,579)" d="m0 0 6 2-3 6h-3l-2-3v-3l2-1z" fill="#E24159"/>
</svg>
